<?xml version="1.0" ?><!DOCTYPE svg  PUBLIC '-//W3C//DTD SVG 1.1//EN'  'http://www.w3.org/Graphics/SVG/1.1/DTD/svg11.dtd'><svg baseProfile="full" height="41px" version="1.1" width="58px" xmlns="http://www.w3.org/2000/svg" xmlns:ev="http://www.w3.org/2001/xml-events" xmlns:xlink="http://www.w3.org/1999/xlink"><path d="M58,28.462 C58,35.375 52.3530000000001,41 45.413,41 L12.586,41 C5.64599999999996,41 0,35.375 0,28.462 C0,23.401 3.07400000000007,18.848 7.72399999999993,16.907 C7.73299999999995,12.122 11.643,8.23099999999999 16.4480000000001,8.23099999999999 C17.999,8.23099999999999 19.482,8.63 20.8,9.393 C23.335,4.05000000000001 28.808,0.53899999999999 34.7929999999999,0.53899999999999 C43.3299999999999,0.53899999999999 50.2760000000001,7.458 50.2760000000001,15.962 C50.2760000000001,16.265 50.2660000000001,16.574 50.2449999999999,16.893 C54.914,18.827 58,23.381 58,28.462 ZM48.8579999999999,18.506 C48.8420000000001,18.5 48.8299999999999,18.488 48.8140000000001,18.482 C47.723,18.114 46.5799999999999,17.924 45.413,17.924 C44.8610000000001,17.924 44.414,17.476 44.414,16.924 C44.414,16.372 44.8610000000001,15.924 45.413,15.924 C46.3820000000001,15.924 47.336,16.041 48.2670000000001,16.256 C48.269,16.158 48.2760000000001,16.057 48.2760000000001,15.962 C48.2760000000001,8.56100000000001 42.2270000000001,2.53999999999999 34.7929999999999,2.53999999999999 C29.4449999999999,2.53999999999999 24.5740000000001,5.762 22.4480000000001,10.62 C23.144,11.279 23.7370000000001,12.052 24.1800000000001,12.894 C24.4369999999999,13.383 24.249,13.988 23.76,14.245 C23.6120000000001,14.323 23.452,14.36 23.296,14.36 C22.9359999999999,14.36 22.5889999999999,14.165 22.4100000000001,13.825 C21.9760000000001,13 21.356,12.264 20.6220000000001,11.684 C19.4200000000001,10.734 17.9770000000001,10.231 16.4480000000001,10.231 C12.9690000000001,10.231 10.098,12.875 9.75800000000004,16.251 C10.682,16.04 11.627,15.924 12.586,15.924 C13.1389999999999,15.924 13.586,16.372 13.586,16.924 C13.586,17.476 13.1389999999999,17.924 12.586,17.924 C11.405,17.924 10.2470000000001,18.118 9.14200000000005,18.496 C9.12300000000005,18.504 9.10699999999997,18.519 9.08699999999999,18.526 C4.84799999999996,20.006 2,23.999 2,28.462 C2,34.272 6.74900000000002,39 12.586,39 L45.413,39 C51.251,39 56,34.272 56,28.462 C56,23.972 53.1300000000001,19.971 48.8579999999999,18.506 Z " fill="rgb( 80, 80, 112 )"/></svg>